HIERARCHY
ROOT Hips
{
	OFFSET 0.000000 0.000000 0.000000
	CHANNELS 6 Xposition Yposition Zposition Xrotation Yrotation Zrotation
	JOINT LeftUpLeg_virtual
	{
		OFFSET 0.000000 0.000000 0.000000
		CHANNELS 3 Xrotation Yrotation Zrotation
		JOINT LeftUpLeg
		{
			OFFSET 13.026900 -6.336304 -1.092800
			CHANNELS 3 Xrotation Yrotation Zrotation
			JOINT LeftLeg
			{
				OFFSET 0.524474 -46.096886 9.782700
				CHANNELS 3 Xrotation Yrotation Zrotation
				JOINT LeftFoot
				{
					OFFSET -0.524474 -53.427422 -12.948200
					CHANNELS 3 Xrotation Yrotation Zrotation
					JOINT LeftToeBase
					{
						OFFSET 0.192200 -14.009700 16.364100
						CHANNELS 3 Xrotation Yrotation Zrotation
						JOINT LeftToe_End
						{
							OFFSET -1.784700 -0.561700 9.474800
							CHANNELS 3 Xrotation Yrotation Zrotation
							End Site
							{
								OFFSET 0 0 0
							}
						}
					}
				}
			}
		}
	}
	JOINT RightUpLeg_virtual
	{
		OFFSET 0.000000 0.000000 0.000000
		CHANNELS 3 Xrotation Yrotation Zrotation
		JOINT RightUpLeg
		{
			OFFSET -12.883000 -6.336304 -1.092800
			CHANNELS 3 Xrotation Yrotation Zrotation
			JOINT RightLeg
			{
				OFFSET -0.524587 -46.096825 9.782800
				CHANNELS 3 Xrotation Yrotation Zrotation
				JOINT RightFoot
				{
					OFFSET 0.524587 -53.427383 -12.948300
					CHANNELS 3 Xrotation Yrotation Zrotation
					JOINT RightToeBase
					{
						OFFSET -0.192200 -14.009700 16.364100
						CHANNELS 3 Xrotation Yrotation Zrotation
						JOINT RightToe_End
						{
							OFFSET 1.784700 -0.561700 9.474800
							CHANNELS 3 Xrotation Yrotation Zrotation
							End Site
							{
								OFFSET 0 0 0
							}
						}
					}
				}
			}
		}
	}
	JOINT Spine_virtual
	{
		OFFSET 0.000000 0.000000 0.000000
		CHANNELS 3 Xrotation Yrotation Zrotation
		JOINT Spine
		{
			OFFSET 0.072000 7.257294 -0.789700
			CHANNELS 3 Xrotation Yrotation Zrotation
			JOINT Spine1
			{
				OFFSET 0.000000 12.508769 -0.658067
				CHANNELS 3 Xrotation Yrotation Zrotation
				JOINT Spine1_split
				{
					OFFSET 0.000000 12.508769 -0.658067
					CHANNELS 3 Xrotation Yrotation Zrotation
					JOINT Spine2
					{
						OFFSET 0.000000 12.508769 -0.658067
						CHANNELS 3 Xrotation Yrotation Zrotation
						JOINT Neck_virtual
						{
							OFFSET 0.000000 0.000000 0.000000
							CHANNELS 3 Xrotation Yrotation Zrotation
							JOINT Neck
							{
								OFFSET 0.000000 14.033295 7.520400
								CHANNELS 3 Xrotation Yrotation Zrotation
								JOINT Head
								{
									OFFSET 0.000000 8.198502 5.703100
									CHANNELS 3 Xrotation Yrotation Zrotation
									JOINT HeadTop_End
									{
										OFFSET 0.000000 17.760803 13.332701
										CHANNELS 3 Xrotation Yrotation Zrotation
										End Site
										{
											OFFSET 0 0 0
										}
									}
								}
							}
						}
						JOINT LeftShoulder_virtual
						{
							OFFSET 0.000000 0.000000 0.000000
							CHANNELS 3 Xrotation Yrotation Zrotation
							JOINT LeftShoulder
							{
								OFFSET 6.292450 5.785301 -0.669000
								CHANNELS 3 Xrotation Yrotation Zrotation
								JOINT LeftShoulder_split
								{
									OFFSET 6.292450 5.785301 -0.669000
									CHANNELS 3 Xrotation Yrotation Zrotation
									JOINT LeftArm
									{
										OFFSET 13.907140 -6.093903 1.965100
										CHANNELS 3 Xrotation Yrotation Zrotation
										JOINT LeftForeArm
										{
											OFFSET 34.140198 0.000000 0.000000
											CHANNELS 3 Xrotation Yrotation Zrotation
											JOINT LeftHand
											{
												OFFSET 40.960209 0.000000 0.000000
												CHANNELS 3 Xrotation Yrotation Zrotation
												End Site
												{
													OFFSET 0 0 0
												}
											}
										}
									}
								}
							}
						}
						JOINT RightShoulder_virtual
						{
							OFFSET 0.000000 0.000000 0.000000
							CHANNELS 3 Xrotation Yrotation Zrotation
							JOINT RightShoulder
							{
								OFFSET -6.292450 5.785301 -0.669000
								CHANNELS 3 Xrotation Yrotation Zrotation
								JOINT RightShoulder_split
								{
									OFFSET -6.292450 5.785301 -0.669000
									CHANNELS 3 Xrotation Yrotation Zrotation
									JOINT RightArm
									{
										OFFSET -13.907140 -6.093903 1.965100
										CHANNELS 3 Xrotation Yrotation Zrotation
										JOINT RightForeArm
										{
											OFFSET -34.140198 0.000000 0.000000
											CHANNELS 3 Xrotation Yrotation Zrotation
											JOINT RightHand
											{
												OFFSET -40.960209 0.000000 0.000000
												CHANNELS 3 Xrotation Yrotation Zrotation
												End Site
												{
													OFFSET 0 0 0
												}
											}
										}
									}
								}
							}
						}
					}
				}
			}
		}
	}
}
MOTION
Frames: 4
Frame Time: 0.03333333
1.952905 117.411118 -1.927856 0.000000 0.000000 0.000000 1.046416 -0.203279 -3.431036 -30.045288 -4.733076 5.795741 45.033380 -0.608729 0.524684 22.761547 -1.389652 8.845924 -9.856853 -0.054146 0.508262 0.000000 0.000000 0.000000 0.944783 3.390218 -3.708841 -20.795681 -13.141036 5.913456 30.049970 5.992971 -1.569261 14.048897 -1.618616 -5.654931 -15.890437 0.634203 2.163254 0.000000 0.000000 0.000000 -3.859869 6.041152 -2.965738 6.029018 1.060691 1.203003 -2.142623 -0.774679 1.838839 -0.127392 1.522452 -0.589257 0.000000 0.000000 0.000000 -2.633140 -0.288894 1.558938 -2.950100 -2.639218 1.669577 3.030402 2.767478 1.819530 0.000000 0.000000 0.000000 -2.379516 0.049604 1.812072 0.449423 2.258620 -2.080435 1.495200 -1.835703 0.276984 0.399750 2.065645 -71.278174 23.727491 -15.051275 1.440031 0.000000 0.000000 0.000000 -1.576899 -0.137848 1.642861 0.621617 4.278414 6.088710 -2.882598 1.290465 -2.028790 -6.711540 7.464558 77.991130 12.016577 18.436646 -3.340391 0.000000 0.000000 0.000000 
1.827756 118.039246 0.526173 0.000000 0.000000 0.000000 0.601234 -1.195068 -3.275015 -31.871999 -3.527597 5.406613 39.609869 -0.120245 0.303019 23.405120 -1.507881 10.230838 -10.155726 -0.160342 0.998853 0.000000 0.000000 0.000000 1.481296 2.404030 -3.710902 -20.535433 -13.019593 5.748002 31.623346 6.680378 -1.689495 15.784000 -1.258924 -6.179713 -16.738366 0.443378 2.542152 0.000000 0.000000 0.000000 -3.102131 5.052098 -3.284171 6.007226 1.272067 1.271499 -2.213554 -0.716985 1.806706 0.061405 0.968501 -0.414072 0.000000 0.000000 0.000000 -2.567882 -0.252576 1.543173 -2.881766 -2.408268 1.232451 3.365057 2.787699 1.922617 0.000000 0.000000 0.000000 -2.617177 0.111084 1.783359 0.547806 2.698470 -2.253844 0.769169 -2.240642 -0.321124 0.666118 2.327409 -71.008907 23.796864 -15.599821 1.663775 0.000000 0.000000 0.000000 -1.735557 -0.103795 1.679722 0.628496 4.336659 5.530278 -2.427178 1.694669 -2.093213 -7.665730 7.842322 77.951685 12.081274 18.374428 -3.579205 0.000000 0.000000 0.000000 
1.966926 119.174522 3.431473 0.000000 0.000000 0.000000 0.263076 -1.622538 -2.903854 -33.716563 -2.173973 4.387441 30.681794 -0.040446 0.523789 25.731918 -1.717296 9.233635 -11.778821 -0.279145 1.221038 0.000000 0.000000 0.000000 1.678305 1.460287 -3.422435 -18.802691 -13.186650 5.296649 32.641109 7.766995 -2.138243 16.536144 0.151496 -7.137412 -19.835947 0.395839 2.814659 0.000000 0.000000 0.000000 -2.225447 3.993388 -3.335191 6.109280 1.466170 1.437539 -2.289490 -0.623074 1.784020 0.575284 0.477217 -0.243696 0.000000 0.000000 0.000000 -2.583688 -0.199053 1.546639 -3.104676 -1.816272 0.340579 3.675260 2.993560 1.709572 0.000000 0.000000 0.000000 -2.862159 0.201203 1.735108 0.658620 3.791382 -2.976449 -0.420899 -2.890875 -0.887839 1.378389 3.008437 -71.204866 24.254589 -15.930392 2.110399 0.000000 0.000000 0.000000 -1.832240 -0.045674 1.635061 0.704516 4.341744 4.510452 -1.976231 1.810191 -1.786775 -8.979190 9.234504 77.396603 11.982531 18.359144 -3.677913 0.000000 0.000000 0.000000 
2.366812 120.195328 6.451382 0.000000 0.000000 0.000000 0.085856 -1.629987 -2.325562 -35.382166 -0.335251 3.243561 20.935477 -0.028669 0.862650 29.585022 -1.772529 6.365970 -14.517552 -0.310304 1.197552 0.000000 0.000000 0.000000 1.596786 0.540697 -2.865287 -15.864433 -13.772950 4.628397 32.568500 8.981111 -2.711050 15.653195 2.067594 -8.670210 -23.831549 0.520308 2.935956 0.000000 0.000000 0.000000 -1.650848 3.028176 -3.149766 6.267280 1.551822 1.634774 -2.340647 -0.562896 1.812884 0.969441 0.114119 0.017029 0.000000 0.000000 0.000000 -2.676566 -0.188743 1.629142 -3.602007 -0.937452 -0.768350 3.961881 3.298428 1.280448 0.000000 0.000000 0.000000 -3.070380 0.255440 1.738328 0.799090 5.438130 -4.065451 -1.649112 -3.556255 -1.074855 2.534560 3.940150 -71.692924 24.911129 -15.879177 2.651554 0.000000 0.000000 0.000000 -1.918586 -0.039757 1.566776 0.831541 4.254774 3.155067 -1.574975 1.644597 -1.274981 -10.288016 11.031563 76.702341 11.717809 18.766040 -3.635008 0.000000 0.000000 0.000000 
